<svg xmlns="http://www.w3.org/2000/svg" version="1.1" xmlns:xlink="http://www.w3.org/1999/xlink" xmlns:svgjs="http://svgjs.dev/svgjs" width="100%" height="100%" viewBox="0 0 1000 600"><rect width="1000" height="600" x="0" y="0" fill="darkblue"/><g><circle r="166.66666666666666" cx="336.2063852945963" cy="358.4286578517916" fill="#d312a3" transform="matrix(0.7372901598584028,0,0,0.737290159858403,0,35.73407399850484)"/><path d="M371.6281741608111 284.45836652801347L371.6281741608111 284.45836652801347Q377.60305073107946 292.8118669461612 385.1919934838374 299.72120288523934Q392.7526192860253 306.6588557748874 401.106119704173 312.9169018508557L401.106119704173 312.9169018508557Q401.89899432013283 313.3133391588356 402.29543162811274 313.7097764668155L402.29543162811274 313.7097764668155Q403.28652489806245 315.60701215500495 401.7007756661429 316.7113732272347L401.7007756661429 316.7113732272347L377.8012693850694 333.3334232118201Q374.71472177294027 335.82531486197945 378.7074118033091 336.22175216995936L378.7074118033091 336.22175216995936Q392.7526192860253 336.7031403296492 401.106119704173 351.937659736305Q409.45962012232076 367.1721791429609 408.66674550636094 379.2352000857776L408.66674550636094 379.2352000857776Q407.0809962744414 400.72776556840176 388.22190719482654 416.3587222830374Q369.3628181152117 431.9896789976732 344.27399991019854 433.2922587238928L344.27399991019854 433.2922587238928Q312.0209932109774 435.07622660980235 288.31970558389384 413.52702722603823Q264.6184179568103 391.9778278422741 263.71227553857057 360.9141330669926L263.71227553857057 360.9141330669926Q262.91940092261075 327.67003309782166 280.10778991859604 305.6677625049377Q297.2678619640114 283.6654919120537 319.7798376671552 283.6654919120537L319.7798376671552 283.6654919120537Q337.5911995756804 283.6654919120537 344.75538806988845 298.9849621704195L344.75538806988845 298.9849621704195Q345.5482626858482 300.68397920461905 347.24727972004774 299.5796181323893L347.24727972004774 299.5796181323893L368.6548943509619 283.86371056604366Q370.35391138516144 282.75934949381394 371.6281741608111 284.45836652801347ZM356.42197170472525 349.84220539412564L356.42197170472525 349.84220539412564Q353.731861400576 349.9554731964056 350.53204598616685 350.6633969606554L350.53204598616685 350.6633969606554Q348.23837298999746 351.0598342686353 347.64371702802765 349.50240198728574Q347.0490610660578 347.97328665650616 349.0312476059573 346.78397473256643L349.0312476059573 346.78397473256643L377.7163185333594 326.8488415312919Q379.41533556755894 325.6595296073522 377.8012693850694 324.2719990294226L377.8012693850694 324.2719990294226Q362.68001778069356 312.6337323451558 353.4203749443061 301.08041651259896L353.4203749443061 301.08041651259896Q352.5142325260663 299.89110458865923 351.23996975041666 300.76893005632905L351.23996975041666 300.76893005632905L339.88487257184977 309.0374796227668Q329.1244313552527 316.99454273293463 329.8889890206425 326.76389067958195Q330.6252297354623 336.50492167565926 343.4528083436688 350.46517830666545L343.4528083436688 350.46517830666545Q364.9736907768629 374.138148983179 356.76177511156516 386.3993885799856Q348.5498594462674 398.6323112262223 330.03057377349245 408.4866100245796L330.03057377349245 408.4866100245796Q327.73690077732306 409.5909710968093 326.68917360623334 408.1468066177397Q325.6414464351436 406.7026421386701 327.53868212333316 405.00362510447053L327.53868212333316 405.00362510447053Q331.92780946168193 400.8127164201117 336.88327581143056 395.06437545440326Q341.8670591117492 389.28771753812487 324.0556972032241 367.4836655992308L324.0556972032241 367.4836655992308Q311.39802029843753 352.05092753858503 308.82117779656824 342.73465080105757Q306.24433529469894 333.4183740635301 309.75563716537795 327.2169618887018Q313.295255986627 320.9872327633035 321.0541004428049 316.39988677096477Q328.8412618495528 311.840857729196 336.9965436137105 305.86598115892764L336.9965436137105 305.86598115892764L340.8759658417995 302.9776522007884Q341.8670591117492 302.2697284365386 341.47062180376935 301.08041651259896L341.47062180376935 301.08041651259896Q337.0814944654205 288.13957010211243 321.16736824508484 288.4227396078124L321.16736824508484 288.4227396078124Q306.92394210837875 288.8191769157923 297.91915182712125 305.21469129581783Q288.9143615458637 321.58188872527336 289.5090175078335 342.4797982459276L289.5090175078335 342.4797982459276Q290.6983294317732 381.69877478536694 307.63186587262857 404.0691657356608Q324.5654023134839 426.4112397353847 350.050657826477 426.4112397353847L350.050657826477 426.4112397353847Q367.35231462474223 426.4112397353847 376.6685913622697 413.4137594237583Q385.98486809979715 400.41627911213186 385.78664944580726 385.4082953100359L385.78664944580726 385.4082953100359Q385.58843079181725 372.9488370592393 377.8579032862094 361.3955212266825Q370.1556927311715 349.84220539412564 356.42197170472525 349.84220539412564Z " fill="#1c0474" transform="matrix(0.7372901598584028,0,0,0.737290159858403,0,35.73407399850484)"/><path d="M693.656569730017 284.45359069628523L693.656569730017 284.45359069628523Q699.6037346032808 292.7683472726493 707.1574795607912 299.6456374578454Q714.6830389027886 306.5511132585545 722.9977954791526 312.78013428694925L722.9977954791526 312.78013428694925Q723.7869927135193 313.17473290413267 724.1815913307028 313.5693315213161L724.1815913307028 313.5693315213161Q725.1680878736612 315.4577677606936 723.5896934049277 316.5570067657045L723.5896934049277 316.5570067657045L699.8010339118725 333.10196307189335Q696.7288018209448 335.582297237046 700.7029736082917 335.9768958542294L700.7029736082917 335.9768958542294Q714.6830389027886 336.4560513179521 722.9977954791526 351.61991246399907Q731.3125520555167 366.78377361004607 730.52335482115 378.79084581862605L730.52335482115 378.79084581862605Q728.9449603524165 400.18372799306786 710.1733404206927 415.7421877562982Q691.4017204889692 431.30064751952864 666.4292651443639 432.5971858331312L666.4292651443639 432.5971858331312Q634.3258490749447 434.3728796104564 610.7344888904811 412.9236262049884Q587.1431287060177 391.47437279952044 586.2411890095985 360.5547525816513L586.2411890095985 360.5547525816513Q585.4519917752318 327.4648399692736 602.5606603916826 305.56461671559606Q619.6411433926203 283.6643934619185 642.0487077255336 283.6643934619185L642.0487077255336 283.6643934619185Q659.7774598832726 283.6643934619185 666.9084206080865 298.9128114545048L666.9084206080865 298.9128114545048Q667.6976178424533 300.6039483852907 669.3887547732393 299.5047093802799L669.3887547732393 299.5047093802799L690.6970801011418 283.8616927705102Q692.3882170319276 282.76245376549934 693.656569730017 284.45359069628523ZM678.5208941994831 349.53417691602976L678.5208941994831 349.53417691602976Q675.8432607257388 349.6469193780822 672.6582861727586 350.35155976590966L672.6582861727586 350.35155976590966Q670.3752513161976 350.746158383093 669.7833533904226 349.1959495298726Q669.1914554646476 347.6739262921653 671.1644485505644 346.49013044061513L671.1644485505644 346.49013044061513L699.7164770653333 326.6474571193938Q701.4076139961192 325.46366126784363 699.8010339118725 324.08256610770184L699.8010339118725 324.08256610770184Q684.749915227878 312.49827813181827 675.5332189550948 300.9985470024741L675.5332189550948 300.9985470024741Q674.6312792586755 299.81475115092394 673.3629265605862 300.68850523183005L673.3629265605862 300.68850523183005L662.0604947398335 308.9187049616548Q651.3499608448561 316.8388629208355 652.1109724637098 326.56290027285445Q652.8437984670504 336.25875200936036 665.6118822944841 350.15426045731795L665.6118822944841 350.15426045731795Q687.0329500844389 373.71743502626833 678.8591215856403 385.92180654343997Q670.6852930868417 398.09799244509855 652.2519005412753 407.90658664365685L652.2519005412753 407.90658664365685Q649.9688656847143 409.0058256486677 648.9259979107296 407.56835925749965Q647.883130136745 406.13089286633164 649.7715663761226 404.43975593554575L649.7715663761226 404.43975593554575Q654.1403367806529 400.2682848396072 659.0728194954452 394.5466048904482Q664.0334878257505 388.79673932577606 646.3047356680115 367.09381538069016L646.3047356680115 367.09381538069016Q633.7057655336564 351.73265492605145 631.1408745219645 342.45958742224207Q628.5759835102725 333.1865199184326 632.0709998338967 327.0138701210641Q635.594201773034 320.8130347081824 643.317060423623 316.2469649950604Q651.0681046897251 311.70908089745154 659.1855619574976 305.76191602418777L659.1855619574976 305.76191602418777L663.0469912827921 302.8869832418517Q664.0334878257505 302.1823428540242 663.6388892085671 300.9985470024741L663.6388892085671 300.9985470024741Q659.2701188040369 288.1177207129881 643.4298028856755 288.3995768681191L643.4298028856755 288.3995768681191Q629.2524382825869 288.79417548530245 620.2894125494215 305.1136468673865Q611.3263868162562 321.40493263395746 611.9182847420313 342.20591688262414L611.9182847420313 342.20591688262414Q613.1020805935814 381.24299436826567 629.9570786704144 403.5096306236135Q646.8120767472473 425.7480812634482 672.1791307090359 425.7480812634482L672.1791307090359 425.7480812634482Q689.4005417875392 425.7480812634482 698.6736092913486 412.81088374293597Q707.946676795158 399.87368622242377 707.7493774865663 384.93531000048154L707.7493774865663 384.93531000048154Q707.5520781779746 372.5336391747182 699.8574051428988 361.033908045374Q692.1909177233359 349.53417691602976 678.5208941994831 349.53417691602976ZM770.1523302325666 431.5825036746596L770.1523302325666 431.5825036746596Q769.9550309239748 429.21491197155933 767.6438104519007 428.0311161200092Q765.3044043643135 426.84732026845904 763.7260098955801 425.63533880139585L763.7260098955801 425.63533880139585Q752.3390212282882 417.9124801508068 747.6320234376008 406.7791620231329Q742.9250256469134 395.6176582799459 742.3331277211382 383.1314306076432L742.3331277211382 383.1314306076432Q741.121146254075 354.8894438635185 757.5815457137246 340.148366950168L757.5815457137246 340.148366950168Q763.415968124936 334.87765684921857 771.0542699289856 331.55175421867295Q778.6925717330354 328.2540372036404 786.7254721542685 326.1683016556711L786.7254721542685 326.1683016556711Q789.177620703908 325.66096057643534 790.3896021709712 328.64863582082376L790.3896021709712 328.64863582082376L804.6515236205992 362.1331470503848Q805.6380201635576 364.8107805241292 803.9468832327716 365.51542091195665L803.9468832327716 365.51542091195665L803.74958392418 365.51542091195665L763.134111969805 381.24299436826567Q761.9503161182548 381.8630779095538 762.1476154268465 383.1314306076432L762.1476154268465 383.1314306076432Q766.9955412950994 405.1443963233732 778.3825299623913 411.3170461207418Q789.7977042451962 417.5178815336235 801.0719504504356 413.1772967446063L801.0719504504356 413.1772967446063Q803.0731291518656 412.2753570481872 803.6086558466145 413.45915289973726Q804.1441825413633 414.6429487512874 802.8758298432739 415.2348466770625L802.8758298432739 415.2348466770625Q794.8429294220408 419.29357531094865 787.5428550041484 423.57778886893965Q780.2709662017689 427.83381681141753 774.5211006370968 432.4844433710788L774.5211006370968 432.4844433710788Q773.6473465561908 433.07634129685385 771.8998383943787 432.8790419882622Q770.1523302325666 432.6817426796705 770.1523302325666 431.5825036746596ZM760.9638195752964 375.60587126564593L760.9638195752964 375.60587126564593Q761.0483764218357 376.3950685000127 761.6402743476108 376.84603834822224Q762.2321722733858 377.2970081964319 763.134111969805 376.90240957924846L763.134111969805 376.90240957924846L784.2451379891157 368.98225162006776Q785.7107899957969 368.36216807877963 785.1188920700218 366.8965160720985L785.1188920700218 366.8965160720985L773.0272630149025 337.2734341678319Q772.1535089339965 335.0749561578102 769.4758754602522 336.6533506265437L769.4758754602522 336.6533506265437Q763.7260098955801 340.03562448811556 761.6402743476108 352.0145110811825Q759.5545387996415 364.0215832897624 760.9638195752964 375.60587126564593ZM850.2276639052794 350.15426045731795L850.0303645966878 350.9434576916847L849.9458077501484 392.9400248062015Q849.8330652880961 409.090382495207 855.8647870078992 411.2888605052287L855.8647870078992 411.2888605052287Q856.5694273957266 411.88075843100376 856.5694273957266 412.6699556653705Q856.5694273957266 413.45915289973726 855.8647870078992 413.96649397897306L855.8647870078992 413.96649397897306Q847.1554318143517 420.3928143159595 841.4055662496796 431.69524613671206L841.4055662496796 431.69524613671206Q840.8136683239045 432.5971858331312 839.8835430119723 432.5971858331312Q838.9252320845269 432.5971858331312 838.4460766208042 431.69524613671206L838.4460766208042 431.69524613671206Q832.6962110561321 420.5055567780119 823.3667723212965 414.05105082551233L823.3667723212965 414.05105082551233Q822.7748743955215 413.45915289973726 822.7748743955215 412.6699556653705Q822.7748743955215 411.88075843100376 823.4795147833489 411.2888605052287L823.4795147833489 411.2888605052287Q830.1031344289271 409.090382495207 829.9058351203354 392.9400248062015L829.9058351203354 392.9400248062015L829.9058351203354 357.96167595444626Q829.9058351203354 347.871225600757 826.1571482570932 345.58819074419597L826.1571482570932 345.58819074419597Q821.788377852563 342.71325796185994 819.0261875322794 347.6739262921653L819.0261875322794 347.6739262921653Q817.9269485272686 349.7596618401346 816.4894821361005 348.80135091268926Q815.0520157449324 347.871225600757 816.630410213666 345.1935921270126L816.630410213666 345.1935921270126Q819.5053429960021 340.62752241389063 822.1266052387202 335.864153392177Q824.7760530969515 331.1289699859764 827.5382434172351 326.3656009642628L827.5382434172351 326.3656009642628Q829.1166378859687 323.49066818192676 831.9915706683047 325.18180511271265L831.9915706683047 325.18180511271265L832.1043131303571 325.2663619592519Q846.366234579985 332.31276583752657 849.3257242088603 342.71325796185994L849.3257242088603 342.71325796185994Q849.6357659795044 343.6997545048184 850.4249632138711 343.81249696687075L850.4249632138711 343.81249696687075Q851.2141604482379 344.0943531220018 852.0033576826047 343.6151976582791L852.0033576826047 343.6151976582791Q856.8794691663707 339.4437265623405 862.2629217293725 334.62398630960064Q867.6745599078874 329.8324316723739 869.7602954558567 326.3656009642628L869.7602954558567 326.3656009642628Q871.3386899245903 323.57522502846604 874.1008802448739 325.18180511271265L874.1008802448739 325.18180511271265Q888.3909873100149 332.2000233754742 891.4632194009426 342.3186593446766L891.4632194009426 342.3186593446766Q891.857818018126 343.6997545048184 892.6470152524928 343.6997545048184Q893.4362124868595 343.6997545048184 894.0281104126345 343.1078565790433L894.0281104126345 343.1078565790433Q899.3833773601232 338.73908617451303 904.5695306145335 334.03208838382557Q909.7838694844568 329.32509059313816 911.869605032426 325.18180511271265L911.869605032426 325.18180511271265Q912.9406584219237 322.5887284855076 915.4209925870764 325.2663619592519L915.4209925870764 325.2663619592519Q921.3681574603402 331.5235686031598 925.6241854028181 335.18769861986266Q929.908398960809 338.8518286365654 939.9988493144983 340.62752241389063L939.9988493144983 340.62752241389063Q941.4926869366925 340.9375641845347 941.5772437832318 341.9240607274932L941.5772437832318 341.9240607274932Q941.5772437832318 343.6151976582791 940.5061903937341 343.6997545048184L940.5061903937341 343.6997545048184Q937.913113766529 344.68625104777686 935.9401206806122 347.1102139819033Q933.9671275946953 349.53417691602976 933.9671275946953 355.1994856341626L933.9671275946953 355.1994856341626L933.9671275946953 398.29529175369026Q933.9671275946953 408.41392772289265 937.7158144579373 410.6969625794536L937.7158144579373 410.6969625794536Q942.0845848624675 413.2618535911456 944.8749607982643 408.4984845694319L944.8749607982643 408.4984845694319Q945.8614573412228 406.6100483300543 947.2989237323909 407.652916104039Q948.7363901235587 408.69578387802363 947.327109347904 411.091561196637L947.327109347904 411.091561196637Q944.3676197190287 415.7421877562982 941.6899862452842 420.44918554698575Q939.0123527715398 425.15618333767316 936.3347192977955 429.80680989733446L936.3347192977955 429.80680989733446Q934.5590255204702 432.5971858331312 931.881392046726 431.10334821093693L931.881392046726 431.10334821093693Q922.8619950825343 426.7345778064067 918.3522966004386 420.3928143159595Q913.842598118343 414.05105082551233 913.842598118343 405.22895316991253L913.842598118343 405.22895316991253L913.9553405803952 353.31104939478496Q913.9553405803952 350.35155976590966 912.3487604961487 349.2523207608988L912.3487604961487 349.2523207608988L904.0340039197845 342.3186593446766Q902.8502080682345 341.5294621103098 901.6664122166842 342.20591688262414L901.6664122166842 342.20591688262414Q895.2119062641848 347.16658521292953 893.7180686419905 348.40675229550584Q892.2524166353094 349.6469193780822 892.2524166353094 351.1407570002764L892.2524166353094 351.1407570002764L892.1396741732569 392.9400248062015Q892.1396741732569 409.2031249572594 898.1995815085731 411.2888605052287L898.1995815085731 411.2888605052287Q898.8760362808875 411.965315277543 898.8760362808875 412.6135844343443Q898.8760362808875 413.2618535911456 898.1995815085731 413.96649397897306L898.1995815085731 413.96649397897306Q889.4620406995126 420.1955150073678 883.6276182883012 431.69524613671206L883.6276182883012 431.69524613671206Q883.0357203625261 432.5971858331312 882.0492238195677 432.5971858331312Q881.0345416610962 432.5971858331312 880.7526855059651 431.69524613671206L880.7526855059651 431.69524613671206Q875.1155624033454 420.70285608660356 865.7015668219706 414.05105082551233L865.7015668219706 414.05105082551233Q864.996926434143 413.57189536178964 864.996926434143 412.7545125119098Q864.996926434143 411.965315277543 865.7015668219706 411.2888605052287L865.7015668219706 411.2888605052287Q872.7197850847322 409.090382495207 872.2406296210095 392.9400248062015L872.2406296210095 392.9400248062015L872.127887158957 357.96167595444626Q872.127887158957 350.63341592104064 868.3510146802018 345.58819074419597L868.3510146802018 345.58819074419597Q863.7003881205405 339.4437265623405 858.9370190988269 343.19241342558263L858.9370190988269 343.19241342558263L850.6222625224627 349.53417691602976L850.2276639052794 350.15426045731795ZM994.1997879461867 350.15426045731795L994.0024886375951 350.9434576916847L993.9179317910558 392.9400248062015Q993.8051893290034 409.090382495207 999.8650966643195 411.2888605052287L999.8650966643195 411.2888605052287Q1000.5415514366339 411.88075843100376 1000.5415514366339 412.6699556653705Q1000.5415514366339 413.45915289973726 999.8650966643195 413.96649397897306L999.8650966643195 413.96649397897306Q991.1275558552591 420.3928143159595 985.377690290587 431.69524613671206L985.377690290587 431.69524613671206Q984.7857923648119 432.5971858331312 983.8556670528797 432.5971858331312Q982.9255417409474 432.5971858331312 982.4182006617116 431.69524613671206L982.4182006617116 431.69524613671206Q976.6683350970395 420.5055567780119 967.367081977717 414.05105082551233L967.367081977717 414.05105082551233Q966.7469984364288 413.45915289973726 966.7469984364288 412.6699556653705Q966.7469984364288 411.88075843100376 967.4516388242563 411.2888605052287L967.4516388242563 411.2888605052287Q974.1034440853475 409.090382495207 973.9061447767558 392.9400248062015L973.9061447767558 392.9400248062015L973.9061447767558 357.96167595444626Q973.9061447767558 347.871225600757 970.1292722980006 345.58819074419597L970.1292722980006 345.58819074419597Q965.7605018934703 342.71325796185994 962.9983115731868 347.6739262921653L962.9983115731868 347.6739262921653Q961.8990725681758 349.7596618401346 960.4616061770078 348.80135091268926Q959.0241397858399 347.871225600757 960.6025342545734 345.1935921270126L960.6025342545734 345.1935921270126Q963.4774670369093 340.62752241389063 966.1269148951405 335.864153392177Q968.7481771378589 331.1289699859764 971.5103674581426 326.3656009642628L971.5103674581426 326.3656009642628Q973.088761926876 323.49066818192676 975.9636947092121 325.18180511271265L975.9636947092121 325.18180511271265L976.0764371712644 325.2663619592519Q990.3383586208922 332.31276583752657 993.3260338652808 342.71325796185994L993.3260338652808 342.71325796185994Q993.6078900204118 343.6997545048184 994.3970872547784 343.81249696687075L994.3970872547784 343.81249696687075Q995.1862844891452 344.0943531220018 996.0036673390251 343.6151976582791L996.0036673390251 343.6151976582791Q1000.851593207278 339.4437265623405 1006.2350457702798 334.62398630960064Q1011.6466839487948 329.8324316723739 1013.7324194967641 326.3656009642628L1013.7324194967641 326.3656009642628Q1015.3108139654976 323.57522502846604 1018.1011899012943 325.18180511271265L1018.1011899012943 325.18180511271265Q1032.3631113509223 332.2000233754742 1035.43534344185 342.3186593446766L1035.43534344185 342.3186593446766Q1035.8299420590333 343.6997545048184 1036.6191392934002 343.6997545048184Q1037.4083365277668 343.6997545048184 1038.000234453542 343.1078565790433L1038.000234453542 343.1078565790433Q1043.3555014010306 338.73908617451303 1048.5698402709538 334.03208838382557Q1053.755993525364 329.32509059313816 1055.8417290733332 325.18180511271265L1055.8417290733332 325.18180511271265Q1056.940968078344 322.5887284855076 1059.421302243497 325.2663619592519L1059.421302243497 325.2663619592519Q1065.3684671167607 331.5235686031598 1069.6244950592386 335.18769861986266Q1073.8805230017165 338.8518286365654 1083.9709733554055 340.62752241389063L1083.9709733554055 340.62752241389063Q1085.4648109775999 340.9375641845347 1085.5775534396523 341.9240607274932L1085.5775534396523 341.9240607274932Q1085.5775534396523 343.6151976582791 1084.4783144346416 343.6997545048184L1084.4783144346416 343.6997545048184Q1081.9134234229496 344.68625104777686 1079.9122447215195 347.1102139819033Q1077.9392516356024 349.53417691602976 1077.9392516356024 355.1994856341626L1077.9392516356024 355.1994856341626L1077.9392516356024 398.29529175369026Q1077.9392516356024 408.41392772289265 1081.7161241143579 410.6969625794536L1081.7161241143579 410.6969625794536Q1086.056708903375 413.2618535911456 1088.8470848391717 408.4984845694319L1088.8470848391717 408.4984845694319Q1089.8335813821302 406.6100483300543 1091.271047773298 407.652916104039Q1092.7085141644661 408.69578387802363 1091.3274190043244 411.091561196637L1091.3274190043244 411.091561196637Q1088.339743759936 415.7421877562982 1085.6621102861916 420.44918554698575Q1082.9844768124472 425.15618333767316 1080.306843338703 429.80680989733446L1080.306843338703 429.80680989733446Q1078.5311495613778 432.5971858331312 1075.8535160876331 431.10334821093693L1075.8535160876331 431.10334821093693Q1066.8341191234417 426.7345778064067 1062.324420641346 420.3928143159595Q1057.81472215925 414.05105082551233 1057.81472215925 405.22895316991253L1057.81472215925 405.22895316991253L1057.9274646213025 353.31104939478496Q1057.9274646213025 350.35155976590966 1056.349070152569 349.2523207608988L1056.349070152569 349.2523207608988L1048.0061279606919 342.3186593446766Q1046.8223321091418 341.5294621103098 1045.6385362575916 342.20591688262414L1045.6385362575916 342.20591688262414Q1039.1840303050922 347.16658521292953 1037.718378298411 348.40675229550584Q1036.2245406762167 349.6469193780822 1036.2245406762167 351.1407570002764L1036.2245406762167 351.1407570002764L1036.1117982141643 392.9400248062015Q1036.1117982141643 409.2031249572594 1042.1717055494805 411.2888605052287L1042.1717055494805 411.2888605052287Q1042.8481603217947 411.965315277543 1042.8481603217947 412.6135844343443Q1042.8481603217947 413.2618535911456 1042.1717055494805 413.96649397897306L1042.1717055494805 413.96649397897306Q1033.4341647404199 420.1955150073678 1027.5997423292085 431.69524613671206L1027.5997423292085 431.69524613671206Q1027.0078444034334 432.5971858331312 1026.021347860475 432.5971858331312Q1025.0348513175165 432.5971858331312 1024.7248095468726 431.69524613671206L1024.7248095468726 431.69524613671206Q1019.0876864442528 420.70285608660356 1009.673690862878 414.05105082551233L1009.673690862878 414.05105082551233Q1008.9690504750504 413.57189536178964 1008.9690504750504 412.7545125119098Q1008.9690504750504 411.965315277543 1009.673690862878 411.2888605052287L1009.673690862878 411.2888605052287Q1016.6919091256395 409.090382495207 1016.2127536619167 392.9400248062015L1016.2127536619167 392.9400248062015L1016.1000111998644 357.96167595444626Q1016.1000111998644 350.63341592104064 1012.3513243366222 345.58819074419597L1012.3513243366222 345.58819074419597Q1007.6725121614479 339.4437265623405 1002.9373287552473 343.19241342558263L1002.9373287552473 343.19241342558263L994.5943865633702 349.53417691602976L994.1997879461867 350.15426045731795ZM1150.7708821214492 414.84024805987906L1150.7708821214492 414.84024805987906Q1145.7256569446045 418.7016773851736 1139.6657496092885 423.3241183293218Q1133.6340278894852 427.91837365795686 1128.4760602505883 431.77980298325133L1128.4760602505883 431.77980298325133Q1126.7003664732629 433.18908375890624 1125.6574986992784 432.9917844503145Q1124.6146309252936 432.7944851417228 1124.8119302338855 431.18790505747626L1124.8119302338855 431.18790505747626Q1124.8119302338855 429.13035512502006 1118.6674660520298 423.26774709829556L1118.6674660520298 423.26774709829556Q1102.5171083630244 408.10388595224856 1103.1090062887997 383.8360709954707L1103.1090062887997 383.8360709954707Q1103.7009042145746 363.035086746804 1122.444338530785 348.6604228351237L1122.444338530785 348.6604228351237Q1128.1660184799441 344.29165243059344 1133.1830580412757 339.4437265623405Q1138.171911987094 334.5958006940876 1142.0615269279017 327.6621392778653L1142.0615269279017 327.6621392778653Q1143.6399213966351 324.5899071869376 1146.4021117169189 327.4648399692736L1146.4021117169189 327.4648399692736Q1161.4814160164265 344.48895173918515 1176.5325347004211 347.5611838301129L1176.5325347004211 347.5611838301129Q1181.2959037221349 348.46312352653206 1177.5190312433797 351.3380563088681L1177.5190312433797 351.3380563088681Q1172.8684046837184 354.6921445549268 1172.473806066535 359.65281288523215L1172.473806066535 359.65281288523215L1172.473806066535 359.85011219382386L1172.755662221666 405.1443963233732Q1172.755662221666 409.68228042098207 1176.0815648522116 411.373417351768Q1179.4074674827573 413.0645542825539 1183.268896808052 408.808526340076L1183.268896808052 408.808526340076Q1184.762734430246 407.1173894092901 1186.0874583593618 407.96295787468307Q1187.4403679039904 408.808526340076 1186.1438295903877 410.9788187345846L1186.1438295903877 410.9788187345846Q1182.5642564202244 416.33408568207335 1179.266539405192 421.49205332097034Q1175.9406367746462 426.65002095986733 1173.6576019180852 432.2025872159478L1173.6576019180852 432.2025872159478L1173.573045071546 432.2871440624871Q1172.163764295891 434.5701789190481 1170.1907712099742 432.2871440624871L1170.1907712099742 432.2871440624871Q1169.0915322049632 431.10334821093693 1167.6258801982822 430.70874959375357L1167.6258801982822 430.70874959375357Q1156.3234483775295 428.2284154286009 1153.3357731331412 415.7421877562982L1153.3357731331412 415.7421877562982Q1153.1384738245495 415.1502898305232 1152.3492765901829 414.5583919047481L1152.3492765901829 414.5583919047481Q1151.4755225092767 414.44564944269575 1150.7708821214492 414.84024805987906ZM1151.87012112646 356.49602394776514L1151.87012112646 356.49602394776514Q1145.7256569446045 354.8048870169792 1137.49545721478 346.9692859043378L1137.49545721478 346.9692859043378Q1133.5212854274328 342.20591688262414 1131.1536937243327 346.06734620791866L1131.1536937243327 346.06734620791866Q1120.640459137947 361.73854843320146 1122.923493994508 380.65109644249054L1122.923493994508 380.65109644249054Q1126.108468547488 407.70928733506514 1141.9487844658493 414.05105082551233L1141.9487844658493 414.05105082551233Q1142.0615269279017 414.05105082551233 1142.146083774441 414.1637932875648L1142.146083774441 414.1637932875648Q1146.2048124083271 415.4321459856542 1151.9546779729994 409.2876818037987L1151.9546779729994 409.2876818037987Q1152.3492765901829 408.69578387802363 1152.3492765901829 408.21662841430094L1152.3492765901829 408.21662841430094Q1152.2647197436434 406.7227907921067 1152.2647197436434 403.5660018546397L1152.2647197436434 403.5660018546397L1153.1384738245495 358.07441841649865Q1153.1384738245495 356.8906225649485 1151.87012112646 356.49602394776514Z " fill="#f7f7f9" transform="matrix(0.7372901598584028,0,0,0.737290159858403,0,35.73407399850484)"/></g></svg>