<svg width="168" height="249" viewBox="0 0 168 249" fill="none" xmlns="http://www.w3.org/2000/svg">
<path d="M109.447 96.4464C108.078 96.9537 89.3599 105.016 71.4351 99.0927C53.5104 93.1693 57.2322 71.6698 57.2322 71.6698L63.4443 67.8031L57.2185 52.4874C64.06 55.4354 108.037 74.7 110.897 81.6243C114.017 89.1245 110.719 95.9802 109.447 96.4464Z" fill="#DEA000"/>
<path d="M100.06 96.9126C103.144 97.8871 106.474 97.7217 109.447 96.4464C110.98 95.7464 112.336 94.7103 113.416 93.4145C114.496 92.1187 115.272 90.5964 115.686 88.9599C116.146 86.7316 115.994 84.4201 115.247 82.2712C114.5 80.1224 113.186 78.2167 111.444 76.7567C109.771 75.4543 107.833 74.534 105.767 74.0603C103.702 73.5866 101.558 73.571 99.4853 74.0144C97.8846 74.2585 96.3477 74.8164 94.9624 75.6564C93.5772 76.4963 92.3708 77.6018 91.4123 78.9094C86.4865 86.2862 93.67 95.0615 100.06 96.9126Z" fill="#FFB15F"/>
<path d="M85.2276 71.7795L103.193 67.762C103.193 67.762 108.393 78.5666 107.832 82.6938L84.6392 89.1245L79.0155 79.5264L85.2276 71.7795Z" fill="#3A435E"/>
<path d="M86.3222 71.7383C87.4169 72.5884 80.7122 79.5264 80.7122 79.5264L81.8479 81.9396L84.9129 79.3208L90.6598 78.1004C90.6598 78.1004 91.3439 79.0191 92.1102 80.1983L92.3975 80.6508C92.8533 81.3486 93.269 82.0719 93.6427 82.8172L93.7384 83.0091C93.884 83.3263 94.012 83.6513 94.1216 83.9827C94.1847 84.2393 94.1847 84.5075 94.1216 84.7642L90.0167 86.6701C90.0167 86.6701 88.4294 92.7854 87.7727 93.5258C86.5803 94.0467 85.3242 94.4064 84.0372 94.5953L78.8103 95.6511L76.2105 92.4152L76.6757 87.1637C76.6757 86.533 76.7578 85.7103 76.8536 84.7916C76.8536 84.3437 76.9083 83.8867 77.0178 83.4205C77.2117 81.718 77.6304 80.0489 78.263 78.4569C78.4772 77.9514 78.7783 77.4873 79.1524 77.0858C81.5606 74.5355 85.2276 70.8745 86.3222 71.7383Z" fill="#C35E3B"/>
<path d="M93.6563 82.776L93.7521 82.968L93.0406 83.1874C92.3838 83.3794 91.5081 83.6673 90.564 83.9964C89.7509 84.2694 88.9634 84.6135 88.2105 85.0247L87.8137 85.2578L87.5127 85.4635L87.2527 85.6417L87.4169 85.3675C87.4819 85.2527 87.555 85.1427 87.6358 85.0384C87.7179 84.915 87.8274 84.7916 87.9505 84.6408C88.601 83.9474 89.4014 83.4127 90.2903 83.0777C91.169 82.7736 92.0992 82.6477 93.0269 82.7075C93.2378 82.7196 93.4478 82.7425 93.6563 82.776Z" fill="#E47C58"/>
<path d="M92.1238 80.1572L92.4112 80.6096H92.3017L89.8251 81.4186C89.0122 81.7035 88.2211 82.0472 87.4579 82.447L87.0611 82.6801L86.7738 82.8857L86.5138 83.064L86.678 82.7898L86.8832 82.4607L87.2116 82.0768C87.8674 81.3705 88.6844 80.8341 89.5925 80.5137C90.4076 80.2415 91.2654 80.1207 92.1238 80.1572Z" fill="#E47C58"/>
<path d="M100.867 69.5445C100.128 70.4769 107.052 74.8508 107.052 74.8508L106.6 77.0858L103.522 75.5364L98.5138 75.6735C98.5138 75.6735 98.1307 76.5648 97.7339 77.6891L97.5834 78.1279C97.3488 78.7984 97.1478 79.4802 96.9813 80.1709V80.3628C96.9172 80.6516 96.8761 80.9451 96.8582 81.2404C96.8357 81.4643 96.8686 81.6903 96.954 81.8985L100.799 82.6526C100.799 82.6526 103.289 87.4105 103.973 87.8493C105.065 88.0532 106.179 88.1039 107.285 88.0001L111.827 87.8219L113.333 84.6134L111.964 80.3491C111.814 79.8418 111.595 79.1699 111.335 78.4295C111.212 78.0593 111.075 77.6754 110.924 77.2915C110.426 75.9174 109.744 74.6168 108.899 73.4248C108.617 73.0384 108.27 72.7043 107.873 72.4376C105.342 70.9156 101.606 68.6258 100.867 69.5445Z" fill="#C35E3B"/>
<path d="M96.9813 80.1709V80.3628H97.6107C98.1991 80.3628 98.979 80.4588 99.8274 80.5411C100.557 80.6104 101.28 80.7387 101.989 80.925L102.372 81.0347L102.646 81.1581L102.906 81.2541L102.715 81.0484L102.427 80.8976L102.085 80.6371C101.392 80.1916 100.605 79.9145 99.7863 79.8281C99.0177 79.752 98.2415 79.8265 97.5013 80.0475L96.9813 80.1709Z" fill="#E47C58"/>
<path d="M97.7339 77.6891L97.5834 78.1279H97.6792C98.2675 78.1279 99.0475 78.2238 99.8958 78.3061C100.626 78.3754 101.349 78.5038 102.058 78.69L102.441 78.7997L102.728 78.9231L102.974 79.0191L102.783 78.8134L102.605 78.5803C102.509 78.5118 102.4 78.4158 102.263 78.3335C101.578 77.8796 100.794 77.5974 99.9779 77.5109C99.2253 77.4316 98.4646 77.492 97.7339 77.6891Z" fill="#E47C58"/>
<path d="M145.501 148.372C143.23 153.856 138.167 157.709 132.749 160.081C121.43 164.843 109.186 166.985 96.9266 166.347C86.4815 165.875 76.1224 164.228 66.044 161.439C63.4936 160.765 61.0485 159.74 58.7784 158.395C52.6484 154.775 48.3656 149.016 47.7088 142.188C47.4128 138.861 47.9245 135.511 49.2002 132.425C50.4295 129.329 52.1943 126.474 54.4135 123.993C61.3371 116.218 72.2014 111.968 82.0531 109.719C85.8531 108.843 89.6996 108.183 93.5742 107.745C101.75 106.678 110.054 107.214 118.026 109.321C132.954 113.572 152.849 130.656 145.501 148.372Z" fill="#254F79"/>
<path d="M16.06 182.362C15.5262 196.885 18.6607 211.307 25.1729 224.292C57.2048 234.699 91.7134 236.481 124.306 227.912C123.376 212.418 123.075 197.294 117.725 182.664C115.399 176.316 112.252 170.036 107.052 165.73C99.6495 159.601 89.3462 158.504 79.686 158.71C56.8627 159.217 33.6837 166.101 16.2652 180.881C16.9494 180.717 15.4443 182.595 16.06 182.362Z" fill="#456997"/>
<path d="M110.897 175.699C110.898 176.268 110.825 176.835 110.678 177.385C109.802 180.47 106.573 182.212 103.686 183.528C91.3317 189.017 78.2988 192.821 64.9357 194.84H64.8536C52.3764 195.784 39.8329 195.324 27.4579 193.469C24.3336 193.037 21.2819 192.184 18.3861 190.932C17.6214 190.422 16.8902 189.863 16.1968 189.259C8.1649 182.403 5.83879 169.186 11.1888 160.054C10.1033 157.001 9.10447 153.925 8.19227 150.826C4.32421 137.298 1.84836 123.409 0.80344 109.376C-0.291201 95.5003 -1.38584 80.1572 5.64723 67.5289C7.99709 63.3172 11.5012 59.8676 15.7453 57.5881C19.0542 55.785 22.8468 55.0748 26.5822 55.5588C35.5172 56.8614 42.3451 68.0911 44.3701 76.9213C46.3952 85.7514 46.1079 94.9107 47.1067 103.905C47.97 111.364 49.7201 118.692 52.32 125.734C54.5256 131.756 57.3504 137.533 60.7487 142.969C61.5303 144.377 62.5487 145.639 63.759 146.699C66.2903 148.673 69.7248 148.824 72.9129 149.181C86.5753 150.812 99.0539 157.749 107.668 168.5C109.337 170.598 110.883 173.135 110.897 175.699Z" fill="#456997"/>
<path d="M110.897 175.699C103.949 175.607 97.0346 174.715 90.2903 173.039C74.8148 169.199 60.0646 161.315 44.1239 161.206C38.0486 161.206 31.5902 162.193 26.2265 159.355C19.166 155.639 16.7852 146.85 15.1432 139.02C11.9551 123.856 8.90379 108.526 8.99957 93.0185C9.08167 82.4195 10.3679 68.2693 15.7453 57.6018C19.0542 55.7987 22.8468 55.0885 26.5822 55.5725C35.5172 56.8751 42.3451 68.1048 44.3702 76.935C46.3952 85.7651 46.1079 94.9244 47.1068 103.919C47.97 111.378 49.7202 118.706 52.32 125.748C54.5256 131.77 57.3504 137.546 60.7487 142.983C61.5303 144.391 62.5487 145.652 63.759 146.713C66.2903 148.687 69.7248 148.838 72.9129 149.194C86.5753 150.826 99.0539 157.762 107.668 168.514C109.337 170.598 110.883 173.135 110.897 175.699Z" fill="#254F79"/>
<path d="M127.494 194.374L117.369 193.674L114.468 193.469L112.977 178.948L117.957 178.578L128.315 177.81L127.494 194.374Z" fill="#C35E3B"/>
<path d="M111.595 208.14C112.375 209.511 114.482 213.076 117.738 212.541C120.995 212.006 121.447 212.637 124.429 214.173C127.412 215.709 138.797 217.121 138.797 217.121C138.797 217.121 141.205 217.806 142.163 218.218C143.12 218.629 149.894 217.011 150.619 217.148C150.879 217.148 151.139 216.531 151.303 215.667C151.59 214.145 151.563 212.02 150.578 212.144C150.4 212.153 150.222 212.153 150.044 212.144C148.115 212.212 143.805 211.76 141.684 210.293C139.358 208.688 129.013 198.843 127.494 194.332L114.468 193.441C113.031 196.718 110.965 207.043 111.595 208.14Z" fill="#C35E3B"/>
<path d="M111.595 208.14C112.375 209.511 114.482 213.076 117.738 212.541C120.995 212.006 121.447 212.637 124.429 214.173C127.412 215.709 138.797 217.121 138.797 217.121C138.797 217.121 141.205 217.806 142.163 218.218C143.12 218.629 149.894 217.011 150.619 217.148C150.879 217.148 151.139 216.531 151.303 215.667C151.59 214.145 151.563 212.02 150.578 212.144C150.4 212.153 150.222 212.153 150.044 212.144C148.279 213.734 145.009 216.326 142.751 216.093C139.508 215.722 126.195 208.455 122.815 209.017C119.435 209.58 117.054 209.922 116.384 209.36C115.713 208.798 117.369 193.633 117.369 193.633L114.468 193.441C113.031 196.718 110.965 207.043 111.595 208.14Z" fill="#E47C58"/>
<path d="M119.668 202.162C120.79 202.587 118.122 200.242 118.19 199.035C118.283 197.811 118.824 196.663 119.709 195.813C120.296 193.883 120.296 191.821 119.709 189.89C119.709 189.89 119.38 194.812 118.341 195.484C118.436 195.484 114.304 200.187 119.668 202.162Z" fill="#CF4A57"/>
<path d="M117.369 193.674L114.468 193.469L112.977 178.948L117.957 178.578L117.369 193.674Z" fill="#FF7D6F"/>
<path d="M57.2185 136.827C57.2185 136.827 108.53 116.136 116.124 118.59C123.718 121.045 133.761 182.458 133.761 182.458H116.398L101.237 147.933L57.2185 136.827Z" fill="#AF97A6"/>
<path d="M138.003 227.967L128.302 230.997L125.524 231.847L118.888 218.862L123.39 216.71L132.79 212.24L138.003 227.967Z" fill="#C35E3B"/>
<path d="M128.138 246.573C129.355 247.56 132.612 250.124 135.444 248.452C138.277 246.779 138.947 247.19 142.286 247.547C145.624 247.903 156.735 245.079 156.735 245.079C156.735 245.079 159.239 244.845 160.279 244.887C161.319 244.928 167.038 240.965 167.764 240.773C168.037 240.773 168.037 240.019 167.873 239.141C167.599 237.619 166.806 235.659 165.93 236.125C165.771 236.213 165.606 236.291 165.437 236.358C163.672 237.126 159.499 238.25 156.981 237.647C154.245 237.002 141.041 231.573 138.003 227.912L125.524 231.806C125.36 235.398 127.152 245.764 128.138 246.573Z" fill="#C35E3B"/>
<path d="M128.138 246.573C129.355 247.56 132.612 250.124 135.444 248.452C138.277 246.779 138.947 247.19 142.286 247.547C145.624 247.903 156.735 245.079 156.735 245.079C156.735 245.079 159.239 244.845 160.279 244.887C161.319 244.928 167.038 240.965 167.764 240.773C168.037 240.773 168.037 240.019 167.873 239.141C167.599 237.619 166.806 235.659 165.93 236.125C165.771 236.213 165.606 236.291 165.437 236.358C164.37 238.47 162.263 242.076 160.074 242.679C156.913 243.515 141.875 241.555 138.933 243.296C135.992 245.037 133.898 246.244 133.063 245.956C132.229 245.668 128.302 230.942 128.302 230.942L125.565 231.806C125.36 235.398 127.152 245.764 128.138 246.573Z" fill="#E47C58"/>
<path d="M133.501 238.072C134.705 238.072 131.367 236.838 130.997 235.686C130.644 234.511 130.737 233.246 131.257 232.135C131.121 230.141 130.397 228.232 129.177 226.65C129.177 226.65 130.655 231.353 129.944 232.341C129.971 232.286 127.782 238.154 133.501 238.072Z" fill="#CF4A57"/>
<path d="M128.302 230.997L125.524 231.847L118.888 218.862L123.39 216.71L128.302 230.997Z" fill="#E47C58"/>
<path d="M138.044 217.806L129.109 221.509L118.655 225.841L89.5651 171.215C89.5651 171.215 45.2869 176.878 37.3371 173.025C29.3872 169.172 22.9426 136.827 22.9426 136.827H57.1501C57.1501 136.827 93.3006 139.569 101.729 143.449C110.158 147.33 138.044 217.806 138.044 217.806Z" fill="#C2ADB9"/>
<path d="M129.109 221.509L118.655 225.841L89.5651 171.215C89.5651 171.215 45.2869 176.878 37.3371 173.025C29.3872 169.172 22.9426 136.827 22.9426 136.827H32.7259C30.304 145.561 34.0258 155.406 40.7989 161.507C47.8319 167.828 57.5606 170.488 67.0155 170.516C76.4705 170.543 85.7339 168.157 94.7784 165.456C106.217 184.14 117.661 202.824 129.109 221.509Z" fill="#AF97A6"/>
<path d="M79.4397 122.526C77.1136 120.839 75.4306 119.578 75.4306 119.578L73.6107 111.927C73.2139 108.211 69.6837 78.9231 66.4545 65.9658C65.94 63.516 65.1361 61.1363 64.06 58.877C61.931 56.6026 59.6448 54.4812 57.2185 52.5286C48.1877 46.8246 37.0361 46.7561 37.0361 46.7561C35.5874 47.0554 34.1996 47.5978 32.9311 48.3603C31.2177 49.2265 29.559 50.1973 27.9642 51.2671C20.507 56.4912 18.1535 74.892 17.9209 94.1154C17.7293 110.158 22.0258 141.406 22.9426 151.47C45.7111 151.045 78.4819 128.709 78.4819 128.709C78.4819 128.709 81.7521 124.226 79.4397 122.526Z" fill="#DEA000"/>
<path d="M37.4876 46.1939C36.214 46.3756 35.0068 46.8769 33.9782 47.6511C32.9496 48.4254 32.1329 49.4475 31.6039 50.6227C31.1017 52.3746 31.2079 54.2454 31.9049 55.929C33.4128 60.4859 36.0881 64.5662 39.6632 67.762C41.2367 65.102 46.0395 62.4968 49.9391 61.2902C53.5104 61.4273 56.5207 62.0306 58.8468 64.6632C62.2265 62.2089 58.149 48.374 46.1216 46.4544C43.2854 45.8252 40.3564 45.7369 37.4876 46.1939Z" fill="#FDE4D9"/>
<path d="M37.4055 48.7579C37.6655 49.0733 49.5013 59.8368 49.5013 59.8368C49.5013 59.8368 49.7886 53.9683 49.9528 50.9106C49.9528 49.9645 50.0486 49.2927 50.0623 49.1419C50.1854 47.9215 51.7453 42.766 51.7453 42.766L39.4306 35.5538C39.4306 35.5538 38.9654 38.2001 38.4728 41.1207C37.9678 43.6432 37.6114 46.1934 37.4055 48.7579Z" fill="#C45E3B"/>
<path d="M38.4728 41.1344C41.7977 44.1097 49.1182 50.609 49.8844 50.9106H49.9528C49.9528 49.9645 50.0486 49.2927 50.0623 49.1419C50.1854 47.9215 51.7453 42.766 51.7453 42.766L39.4306 35.5538C39.4306 35.5538 38.9654 38.2001 38.4728 41.1344Z" fill="#A84522"/>
<path d="M37.6244 35.828C37.95 36.7318 38.4791 37.5482 39.1706 38.2138C39.4732 38.5414 39.7929 38.8526 40.1284 39.1462C41.4967 40.3802 55.0839 47.8941 57.3006 47.8255C59.5172 47.757 62.3223 40.4351 62.5138 39.5987C63.7042 34.8134 67.125 20.0187 67.125 20.0187C63.3758 3.20848 43.3302 9.73513 41.0315 11.12C38.7327 12.5048 37.6244 35.828 37.6244 35.828Z" fill="#C45E3B"/>
<path d="M39.1706 38.2138C39.4732 38.5414 39.7929 38.8526 40.1284 39.1462C41.4967 40.3802 55.0839 47.8941 57.3006 47.8255C59.5172 47.757 62.3223 40.4351 62.5138 39.5987C60.8171 42.7523 58.8331 47.1674 57.3006 46.8657C54.9882 46.4818 40.7989 39.297 39.1706 38.2138Z" fill="#E47C58"/>
<path d="M64.881 25.6541C64.881 25.6541 63.8411 21.3762 61.9528 22.0892C60.0646 22.8021 60.5845 23.1861 60.5845 23.1861L64.881 25.6541Z" fill="#55062C"/>
<path d="M45.0132 18.4968C45.0132 18.4968 51.1706 14.3833 52.5526 16.8514C53.3599 18.2225 52.3747 18.8121 52.3747 18.8121L45.0132 18.4968Z" fill="#55062C"/>
<path d="M46.8057 26.1477C46.6552 27.656 47.2846 28.89 48.174 29.0409C49.0634 29.1917 49.9939 27.9988 50.1444 26.4905C50.2949 24.9823 49.6518 23.6797 48.7761 23.5837C47.9004 23.4877 46.9562 24.6806 46.8057 26.1477Z" fill="#161818"/>
<path d="M45.328 24.4612C45.6723 25.1214 46.1935 25.6722 46.8331 26.0518C47.483 26.3678 48.208 26.496 48.9266 26.422C48.5991 25.7694 48.076 25.2361 47.4306 24.8967C46.7851 24.5573 46.0499 24.429 45.328 24.5298V24.4612Z" fill="#FFF0E7"/>
<path d="M62.7601 28.7941C62.637 29.9321 61.9802 30.7959 61.2687 30.7274C60.5571 30.6588 60.0782 29.6716 60.2014 28.5335C60.3245 27.3955 60.9676 26.5317 61.6791 26.6002C62.3907 26.6688 62.9243 27.6423 62.7601 28.7941Z" fill="#161818"/>
<path d="M63.9505 27.8891C63.5972 28.2539 63.1604 28.5269 62.678 28.6844C62.1835 28.8047 61.6674 28.8047 61.1729 28.6844C61.5328 28.3211 61.9736 28.0485 62.4591 27.8891C62.949 27.7688 63.4606 27.7688 63.9505 27.8891Z" fill="#FFF0E7"/>
<path d="M48.8171 39.2285C49.4321 39.6162 50.1235 39.866 50.8438 39.9606C51.5642 40.0553 52.2965 39.9926 52.9904 39.7769C52.7571 40.0801 52.4487 40.3168 52.0959 40.4635C51.743 40.6103 51.358 40.6619 50.979 40.6133C50.1116 40.4373 49.3408 39.9435 48.8171 39.2285Z" fill="#E47C58"/>
<path d="M60.8582 34.9642C61.0224 35.5812 62.3086 35.7732 63.7179 35.403C65.1273 35.0328 66.1535 34.2238 65.9893 33.6068C65.8251 32.9898 64.5526 32.7841 63.1295 33.1543C61.7065 33.5245 60.694 34.2786 60.8582 34.9642Z" fill="#A84522"/>
<path d="M43.946 30.4394C43.6313 31.317 44.9859 32.6333 46.9973 33.3737C49.0087 34.1141 50.8969 34.0044 51.2116 33.1269C51.5264 32.2493 50.1717 30.933 48.174 30.1926C46.1763 29.4522 44.2744 29.5619 43.946 30.4394Z" fill="#A84522"/>
<path d="M46.2037 34.8682C46.2037 34.8682 46.2037 35.0053 46.4089 35.2384C46.6118 35.5627 46.8406 35.87 47.0931 36.1571C47.939 37.107 49.0066 37.8321 50.2004 38.2676C51.3943 38.7031 52.6772 38.8353 53.9346 38.6526C54.3117 38.5957 54.6827 38.5039 55.0429 38.3784L55.4397 38.2275H55.0292C54.6601 38.2511 54.29 38.2511 53.9209 38.2275C52.7207 38.1908 51.5338 37.9641 50.4044 37.5557C49.2771 37.1455 48.22 36.5627 47.271 35.828C46.9152 35.5401 46.6279 35.2796 46.4363 35.1013L46.2037 34.8682Z" fill="#E47C58"/>
<path d="M39.6632 36.6096C38.4682 36.3728 37.3343 35.8928 36.3317 35.1995C35.3291 34.5061 34.4791 33.614 33.8342 32.5784C33.631 32.2638 33.4526 31.9337 33.3006 31.5912C32.6301 30.0007 32.9038 24.7355 35.1752 23.7208C36.7624 23.0078 37.7339 24.3653 38.1717 25.2428C38.2829 25.4551 38.3789 25.675 38.4591 25.9009L39.6632 36.6096Z" fill="#FFBF90"/>
<path d="M39.6632 36.6096C38.4682 36.3728 37.3343 35.8928 36.3317 35.1995C35.3291 34.5061 34.4791 33.614 33.8342 32.5784C33.7521 32.4139 33.67 32.2631 33.6153 32.1259C32.9311 30.5354 33.2185 25.2702 35.4899 24.2556C35.7341 24.1398 35.9988 24.0734 36.2688 24.0604C36.5387 24.0474 36.8085 24.0879 37.0628 24.1796C37.3171 24.2713 37.5507 24.4124 37.7504 24.5949C37.9501 24.7774 38.1119 24.9975 38.2265 25.2428C38.3376 25.4551 38.4336 25.675 38.5138 25.9009L39.6632 36.6096Z" fill="#C45E3B"/>
<path d="M34.0668 27.8205C33.9437 28.2413 33.9437 28.6887 34.0668 29.1094C34.4773 30.9193 36.1056 32.4413 37.6518 33.8673C37.2506 32.983 37.1404 31.9939 37.3371 31.0427C37.431 30.7233 37.5041 30.3981 37.556 30.0692C37.6655 28.7941 34.9562 25.4073 34.0668 27.8205Z" fill="#A84522"/>
<path d="M38.418 34.4569L38.2949 34.3883L38.0349 34.1964C37.7453 33.9552 37.4919 33.6735 37.2823 33.36C36.9924 32.9183 36.8053 32.4168 36.735 31.8928C36.6706 31.2582 36.8096 30.6194 37.1318 30.0692C37.174 29.9909 37.2245 29.9174 37.2823 29.8498V29.7402L37.1866 29.5345C37.0497 29.2603 36.8992 28.9997 36.7487 28.7529C36.5982 28.5061 36.434 28.2867 36.2698 28.0811C36.124 27.8866 35.9639 27.7032 35.7909 27.5326C35.6458 27.3896 35.4669 27.2859 35.2709 27.231C35.1201 27.1798 34.9566 27.1798 34.8057 27.231C34.7129 27.2601 34.6316 27.3176 34.5731 27.3955V27.4778C34.5696 27.4459 34.5696 27.4137 34.5731 27.3818C34.6171 27.289 34.6888 27.2124 34.7784 27.1624C34.9447 27.0688 35.1363 27.0304 35.3257 27.0527C35.5784 27.0806 35.8192 27.1753 36.0235 27.3269C36.2448 27.4857 36.4509 27.6648 36.6392 27.8617C36.8447 28.0733 37.0367 28.2977 37.2139 28.5335C37.4106 28.7902 37.589 29.0606 37.7476 29.3425C37.7476 29.4111 37.816 29.4796 37.857 29.5619V29.6716L37.9254 29.8224V29.9321C37.8978 29.9654 37.8748 30.0023 37.857 30.0418L37.7476 30.1789L37.6244 30.3709C37.3347 30.8554 37.1832 31.4103 37.1866 31.9751C37.1992 32.4486 37.3062 32.9148 37.5013 33.3463C37.6526 33.6571 37.8361 33.9513 38.0486 34.2238L38.2538 34.4432L38.418 34.4569Z" fill="#CF4A57"/>
<path d="M58.8194 33.2091C58.6224 33.5991 58.3476 33.9445 58.0121 34.2238C57.5453 34.5808 57.0459 34.8929 56.5207 35.1562C55.9943 34.9945 55.5162 34.7045 55.1293 34.312C54.7424 33.9195 54.4588 33.4369 54.304 32.9075L54.6735 33.0172C55.5896 33.3447 56.5621 33.4846 57.5332 33.4285C57.969 33.4054 58.4006 33.3318 58.8194 33.2091Z" fill="#A84522"/>
<path d="M59.312 32.2219C59.3125 31.8497 59.1705 31.4914 58.9152 31.221C58.6896 30.984 58.4068 30.8093 58.0942 30.7137C57.5995 30.5863 57.0772 30.62 56.6027 30.8096H56.4933C56.8566 30.0422 57.1764 29.2548 57.4511 28.4513C57.8559 27.2226 58.1535 25.9609 58.3405 24.6806C57.7102 25.803 57.1879 26.9829 56.7806 28.2045C56.4819 29.1376 56.2487 30.0906 56.0828 31.0564V31.2895L56.3838 31.221L56.7533 31.1524C57.1597 31.0914 57.575 31.1387 57.9574 31.2895C58.1589 31.3587 58.3348 31.4874 58.4618 31.6588C58.5888 31.8301 58.661 32.036 58.6689 32.2493C58.6515 32.736 58.5051 33.2093 58.2447 33.6205C58.0209 33.9841 57.7389 34.3084 57.41 34.5803C57.1763 34.7763 56.9188 34.9422 56.6438 35.0739L56.3291 35.211H56.6848C57.0021 35.1572 57.3105 35.0603 57.6016 34.9231C58.0372 34.7014 58.42 34.388 58.7236 34.0044C59.1229 33.4981 59.3313 32.8669 59.312 32.2219Z" fill="#E47C58"/>
<path d="M67.4671 19.196C59.9984 17.8369 52.7813 15.3399 46.0668 11.7919C44.6028 12.642 43.0566 13.7526 41.5925 14.5341C41.3431 18.7659 40.2937 22.9117 38.5001 26.7511C37.6307 25.5045 36.5067 24.4575 35.2025 23.6797C34.0738 20.7293 33.6611 17.5524 33.9984 14.4107C32.6354 14.4079 31.2833 14.1666 30.003 13.6977L30.5777 13.3824C31.9958 12.6003 33.3067 11.637 34.4773 10.5167C33.0478 10.6763 31.6013 10.5741 30.2082 10.215C32.0544 9.53442 33.8027 8.61234 35.4078 7.47274C34.0395 7.19852 32.3975 6.84202 30.9882 6.56779H31.0566C35.4762 4.27798 41.0315 0.877536 46.0258 0.219386C51.499 -0.493609 59.312 0.479904 63.6632 3.9489C65.7473 5.68877 67.1364 8.12246 67.5765 10.8046C67.9115 12.5429 68.0127 14.3183 67.8776 16.0835C67.8068 17.1287 67.6697 18.1683 67.4671 19.196Z" fill="#161616"/>
<path d="M67.4671 19.196C59.9984 17.8369 52.7813 15.3399 46.0668 11.7919C44.6028 12.642 43.0566 13.7526 41.5925 14.5341C41.3431 18.7659 40.2937 22.9117 38.5001 26.7511C37.6307 25.5045 36.5067 24.4575 35.2025 23.6797C34.0738 20.7293 33.6611 17.5524 33.9984 14.4107C32.6354 14.4079 31.2833 14.1666 30.003 13.6977L30.5777 13.3824C33.5953 13.2627 36.5586 12.5402 39.2938 11.2571L37.4465 13.7115C40.7361 12.8511 43.7331 11.1174 46.1216 8.69307C52.8967 12.3729 60.258 14.8458 67.8776 16.0013C67.8103 17.074 67.6732 18.1412 67.4671 19.196Z" fill="black"/>
<path d="M67.5765 10.7635C62.34 9.76329 57.2902 7.95471 52.6073 5.40232C51.2529 6.28555 49.7286 6.87411 48.133 7.12996C48.7754 6.36308 49.2425 5.46449 49.5013 4.49736C46.5275 6.29847 43.1987 7.43064 39.7453 7.81553L42.0303 5.34747C38.4392 6.18577 34.7705 6.64531 31.0839 6.71862C35.4762 4.27798 41.0315 0.877536 46.0258 0.219386C51.499 -0.493609 59.312 0.479904 63.6632 3.9489C65.7388 5.67848 67.1272 8.09615 67.5765 10.7635Z" fill="#2B2B2B"/>
<path d="M119.996 166.361C119.873 166.827 119.722 167.293 119.558 167.732C117.355 173.902 112.238 178.701 106.573 182.129C93.7795 189.739 79.5355 193.523 64.9357 194.826H64.8536C52.3764 195.771 39.8329 195.311 27.4579 193.455C24.3336 193.024 21.2819 192.17 18.3861 190.918C15.0543 189.586 12.0295 187.585 9.49767 185.039C6.9658 182.492 4.98031 179.454 3.66319 176.11C3.34508 175.213 3.08457 174.297 2.88326 173.368C2.04582 169.453 2.16316 165.394 3.22533 161.535C4.24024 157.7 5.9216 154.075 8.19227 150.826C15.2801 140.556 27.4716 133.933 38.9243 129.82C43.3126 128.218 47.7899 126.872 52.3337 125.789C61.8863 123.32 71.827 122.738 81.6016 124.075C100.033 126.886 126.14 144.258 119.996 166.361Z" fill="#456997"/>
<path d="M119.996 166.361C119.873 166.827 119.722 167.293 119.558 167.732C115.281 159.617 109.638 152.302 102.879 146.109C94.0745 138.584 83.1323 134.022 71.5993 133.07C60.0901 132.184 48.5361 134.064 37.8981 138.554C27.3485 142.805 17.5788 149.373 10.9289 158.614C7.19725 163.813 4.69829 169.797 3.62214 176.11C3.30404 175.213 3.04353 174.297 2.84221 173.368C2.00477 169.453 2.12212 165.394 3.18429 161.535C4.21179 157.698 5.90713 154.072 8.19227 150.826C15.2801 140.556 27.4716 133.933 38.9243 129.82C43.3126 128.218 47.7899 126.872 52.3337 125.789C61.8863 123.32 71.8271 122.738 81.6016 124.075C100.033 126.886 126.14 144.258 119.996 166.361Z" fill="#5B82AF"/>
<path d="M22.3131 191.22C33.4941 198.532 46.7636 201.957 60.0782 200.969C72.9129 199.954 86.3359 194.675 95.6541 185.639C72.9676 193.071 45.6974 197.87 22.3131 191.22Z" fill="#254F79"/>
<path d="M77.4694 102.521C79.2992 102.259 80.9669 101.326 82.1489 99.9017C81.6425 94.7588 79.5201 89.9098 76.0874 86.0531C75.2933 85.8833 74.4737 85.8722 73.6754 86.0205C72.877 86.1687 72.1158 86.4733 71.4352 86.9169C73.3234 92.1273 75.5811 97.3513 77.4694 102.521Z" fill="#FFB15F"/>
<path d="M51.8137 89.5769C45.4429 92.5636 39.3641 96.1395 33.6563 100.258L35.2299 99.1612C36.2288 91.428 35.353 84.6819 36.3519 76.9487C36.8445 73.1369 37.2687 69.0097 35.3257 65.7053C33.9574 63.3469 31.5081 61.7975 29.5241 59.9053C28.5251 58.7964 27.8111 57.4601 27.4439 56.0122C27.0767 54.5643 27.0674 53.0485 27.4169 51.5962C22.7099 54.078 19.5628 59.6174 18.1261 64.7455C14.3776 78.189 12.6528 92.1179 13.0087 106.072C13.1455 111.858 13.7749 117.973 17.2367 122.526C20.1062 126.172 24.2283 128.616 28.7989 129.381C38.377 131.164 47.9551 126.639 56.6028 122.265C63.579 118.99 70.2704 115.138 76.6073 110.747C77.7121 109.934 78.7633 109.05 79.7544 108.101C78.3177 100.532 76.5115 92.9088 71.9825 86.6152C65.8114 83.7633 58.0805 86.8895 51.8137 89.5769Z" fill="#DEA000"/>
<path d="M67.6313 113.942C60.7077 118.302 54.6187 122.622 46.6142 124.911C38.9126 126.948 30.9083 127.579 22.9836 126.776C22.8543 126.771 22.7277 126.815 22.6287 126.898C22.5297 126.982 22.4653 127.099 22.4482 127.228C22.4311 127.356 22.4625 127.487 22.5362 127.593C22.6099 127.7 22.7206 127.775 22.8468 127.804C37.4876 130.944 57.9711 126.228 68.2333 114.696C68.5891 114.326 68.1375 113.641 67.6313 113.942Z" fill="#FFB15F"/>
<path d="M67.4397 85.011C55.6973 86.4373 44.6431 91.3292 35.6814 99.0653C38.8285 87.2871 36.6666 74.1653 28.662 64.7866C28.5252 64.6358 28.2789 64.7866 28.3747 65.006C35.2162 76.0712 37.5286 89.0559 33.2048 101.547C32.9175 102.383 34.0395 102.918 34.5731 102.37C43.5772 93.7991 55.0876 88.3491 67.4123 86.8209C68.5207 86.6153 68.5343 84.8876 67.4397 85.011Z" fill="#FFB15F"/>
<path d="M70.6415 77.2915C69.9711 75.3307 69.2732 73.4111 68.4112 71.5189C66.824 67.8031 65.1683 63.5389 62.6096 60.399C62.4591 60.2207 62.117 60.399 62.2128 60.6321C63.6906 64.485 66.003 68.0225 67.5628 71.8754C68.3154 73.7539 68.9311 75.6461 69.6427 77.5657C70.1007 79.4435 70.7187 81.2784 71.4899 83.0503C71.5274 83.1218 71.588 83.1784 71.6617 83.2109C71.7355 83.2433 71.8181 83.2497 71.896 83.229C71.9739 83.2083 72.0425 83.1617 72.0905 83.0969C72.1385 83.032 72.1631 82.9527 72.1603 82.872C71.9135 80.9505 71.4024 79.0725 70.6415 77.2915Z" fill="#FFB15F"/>
<path d="M96.954 59.3295C94.9835 61.729 92.8435 63.9835 90.5503 66.0755C91.2253 62.995 91.8912 59.9099 92.548 56.8203C94.0121 57.5881 95.4899 58.6302 96.954 59.3295Z" fill="#FFB15F"/>
<path d="M79.1524 63.8268C81.5751 65.7392 83.8612 67.8193 85.9939 70.0518L76.7031 68.2968C77.4283 66.8296 78.4956 65.3077 79.1524 63.8268Z" fill="#FFB15F"/>
<path d="M85.2276 61.6193C85.1103 63.1089 84.8909 64.5887 84.5708 66.0481L82.8057 61.8524C83.572 61.7015 84.4614 61.7015 85.2276 61.6193Z" fill="#FFB15F"/>
<path d="M100.498 63.0727C99.1748 63.7473 97.8025 64.3202 96.3929 64.7866C97.296 63.5663 98.1854 62.3323 99.1295 61.112C99.5674 61.7015 100.005 62.442 100.498 63.0727Z" fill="#FFB15F"/>
</svg>
