<svg width="30" height="54" viewBox="0 0 30 54" fill="none" xmlns="http://www.w3.org/2000/svg">
<path d="M3.16572 12.28H9.32572L15.3977 21.564C16.4831 23.236 17.5244 24.952 18.5217 26.712C19.5484 28.4427 20.3404 30.012 20.8977 31.42H20.9857C20.8391 29.66 20.7511 27.9 20.7217 26.14C20.6924 24.3507 20.6777 22.576 20.6777 20.816V12.28H26.8377V40H20.6777L14.2537 30.54C13.1977 28.9853 12.2297 27.4013 11.3497 25.788C10.4697 24.1747 9.72172 22.4733 9.10572 20.684H9.01772C9.16439 22.532 9.25239 24.3067 9.28172 26.008C9.31105 27.7093 9.32572 29.44 9.32572 31.2V40H3.16572V12.28Z" fill="#01037C"/>
<path fill-rule="evenodd" clip-rule="evenodd" d="M30 26.1905H0V22H30V26.1905Z" fill="#01037C"/>
<path fill-rule="evenodd" clip-rule="evenodd" d="M30 33H0V28.8095H30V33Z" fill="#01037C"/>
</svg>
