<svg width="24" height="24" viewBox="0 0 24 24" fill="none" xmlns="http://www.w3.org/2000/svg">
<circle cx="12" cy="12" r="12" fill="#DBDBFF"/>
<path d="M12.2044 15.2217C12.0444 15.1239 11.8431 15.1239 11.6831 15.2217L9.29585 16.6797C8.9163 16.9115 8.4457 16.5696 8.54887 16.137L9.1979 13.4158C9.2414 13.2334 9.17921 13.042 9.03682 12.9201L6.91306 11.1009C6.57528 10.8115 6.75506 10.2583 7.1984 10.2227L9.98617 9.99939C10.1731 9.98442 10.3359 9.86612 10.4079 9.69299L11.4821 7.1101C11.6529 6.69943 12.2346 6.69943 12.4054 7.1101L13.4796 9.69298C13.5516 9.86612 13.7144 9.98442 13.9013 9.99939L16.6895 10.2227C17.1329 10.2583 17.3127 10.8116 16.9749 11.1009L14.8507 12.9201C14.7083 13.042 14.6461 13.2334 14.6896 13.4158L15.3386 16.137C15.4418 16.5696 14.9712 16.9115 14.5917 16.6797L12.2044 15.2217Z" fill="#898BF5"/>
</svg>
