<?xml version="1.0" ?><svg width="64px" height="64px" viewBox="0 0 64 64" xmlns="http://www.w3.org/2000/svg"><defs><style>.cls-1{fill:#d8d8fc;}.cls-2{fill:#fdbf00;}.cls-3{fill:#2c3b73;}.cls-4{fill:#4bb9ec;}.cls-5{fill:#f03800;}.cls-6{fill:#f2f2fc;}</style></defs><title/><g id="time"><path class="cls-1" d="M5,59H59V13H5Zm16-3a1,1,0,0,1-1,1H16a1,1,0,0,1-1-1V46a1,1,0,0,1,1-1h4a1,1,0,0,1,1,1Zm8,0a1,1,0,0,1-1,1H24a1,1,0,0,1-1-1V44a1,1,0,0,1,1-1h4a1,1,0,0,1,1,1Zm7-41H56a1,1,0,0,1,0,2H36a1,1,0,0,1,0-2Zm0,4H56a1,1,0,0,1,0,2H36a1,1,0,0,1,0-2Zm0,4H56a1,1,0,0,1,0,2H36a1,1,0,0,1,0-2Zm0,4H56a1,1,0,0,1,0,2H36a1,1,0,0,1,0-2Zm-.879,16.835a1,1,0,0,1,.709-.815l1.153-.336a9.931,9.931,0,0,1,.8-1.922L37.2,39.709a1,1,0,0,1,.075-1.078,11.484,11.484,0,0,1,2.355-2.354,1,1,0,0,1,1.078-.075l1.053.577a9.906,9.906,0,0,1,1.921-.8l.337-1.153a1,1,0,0,1,.815-.709,11.54,11.54,0,0,1,3.33,0,1,1,0,0,1,.815.709l.336,1.153a9.89,9.89,0,0,1,1.921.8l1.053-.577a1,1,0,0,1,1.078.075,11.483,11.483,0,0,1,2.355,2.354,1,1,0,0,1,.075,1.078l-.577,1.053a9.925,9.925,0,0,1,.8,1.921l1.153.337a1,1,0,0,1,.709.815,11.5,11.5,0,0,1,0,3.33,1,1,0,0,1-.709.815l-1.153.336a9.926,9.926,0,0,1-.8,1.922l.577,1.053a1,1,0,0,1-.075,1.078,11.481,11.481,0,0,1-2.355,2.354,1,1,0,0,1-1.078.075l-1.053-.577a9.906,9.906,0,0,1-1.921.8L48.98,56.17a1,1,0,0,1-.815.709,11.54,11.54,0,0,1-3.33,0,1,1,0,0,1-.815-.709l-.336-1.153a9.89,9.89,0,0,1-1.921-.8l-1.053.577a1,1,0,0,1-1.078-.075,11.483,11.483,0,0,1-2.355-2.354,1,1,0,0,1-.075-1.078l.577-1.053a9.927,9.927,0,0,1-.8-1.921L35.83,47.98a1,1,0,0,1-.709-.815A11.5,11.5,0,0,1,35.121,43.835ZM20.036,15A12.964,12.964,0,1,1,7.071,27.964,12.97,12.97,0,0,1,20.036,15ZM7,48a1,1,0,0,1,1-1h4a1,1,0,0,1,1,1v8a1,1,0,0,1-1,1H8a1,1,0,0,1-1-1Z"/><circle class="cls-1" cx="46.5" cy="45.5" r="4.051"/><path class="cls-2" d="M38.086,46.555a1,1,0,0,1,.694.734,7.925,7.925,0,0,0,1,2.4A1,1,0,0,1,39.8,50.7l-.529.966a9.516,9.516,0,0,0,1.056,1.056L41.3,52.2a1,1,0,0,1,1.01.028,7.9,7.9,0,0,0,2.4,1,1,1,0,0,1,.734.694l.309,1.057a9.544,9.544,0,0,0,1.493,0l.309-1.057a1,1,0,0,1,.734-.694,7.9,7.9,0,0,0,2.4-1A1,1,0,0,1,51.7,52.2l.965.529a9.557,9.557,0,0,0,1.056-1.056L53.2,50.7a1,1,0,0,1,.028-1.009,7.926,7.926,0,0,0,1-2.4,1,1,0,0,1,.694-.734l1.057-.308a9.509,9.509,0,0,0,0-1.494l-1.057-.308a1,1,0,0,1-.694-.734,7.927,7.927,0,0,0-1-2.405A1,1,0,0,1,53.2,40.3l.529-.966a9.511,9.511,0,0,0-1.056-1.056L51.7,38.8a1,1,0,0,1-1.01-.028,7.9,7.9,0,0,0-2.4-1,1,1,0,0,1-.734-.694l-.309-1.057h0a9.545,9.545,0,0,0-1.493,0l-.308,1.057a1,1,0,0,1-.734.694,7.9,7.9,0,0,0-2.4,1,1,1,0,0,1-1.01.028l-.966-.529a9.563,9.563,0,0,0-1.056,1.056l.529.966a1,1,0,0,1-.028,1.009,7.926,7.926,0,0,0-1,2.405,1,1,0,0,1-.694.734l-1.057.308a9.509,9.509,0,0,0,0,1.494ZM46.5,39.449A6.051,6.051,0,1,1,40.45,45.5,6.054,6.054,0,0,1,46.5,39.449Z"/><path d="M35.83,47.98l1.153.337a9.927,9.927,0,0,0,.8,1.921L37.2,51.291a1,1,0,0,0,.075,1.078,11.483,11.483,0,0,0,2.355,2.354,1,1,0,0,0,1.078.075l1.053-.577a9.89,9.89,0,0,0,1.921.8l.336,1.153a1,1,0,0,0,.815.709,11.54,11.54,0,0,0,3.33,0,1,1,0,0,0,.815-.709l.337-1.153a9.906,9.906,0,0,0,1.921-.8l1.053.577a1,1,0,0,0,1.078-.075,11.481,11.481,0,0,0,2.355-2.354,1,1,0,0,0,.075-1.078l-.577-1.053a9.926,9.926,0,0,0,.8-1.922l1.153-.336a1,1,0,0,0,.709-.815,11.5,11.5,0,0,0,0-3.33,1,1,0,0,0-.709-.815l-1.153-.337a9.925,9.925,0,0,0-.8-1.921l.577-1.053a1,1,0,0,0-.075-1.078,11.483,11.483,0,0,0-2.355-2.354,1,1,0,0,0-1.078-.075l-1.053.577a9.89,9.89,0,0,0-1.921-.8L48.98,34.83a1,1,0,0,0-.815-.709,11.54,11.54,0,0,0-3.33,0,1,1,0,0,0-.815.709l-.337,1.153a9.906,9.906,0,0,0-1.921.8L40.709,36.2a1,1,0,0,0-1.078.075,11.484,11.484,0,0,0-2.355,2.354,1,1,0,0,0-.075,1.078l.577,1.053a9.931,9.931,0,0,0-.8,1.922l-1.153.336a1,1,0,0,0-.709.815,11.5,11.5,0,0,0,0,3.33A1,1,0,0,0,35.83,47.98Zm1.2-3.227,1.057-.308a1,1,0,0,0,.694-.734,7.926,7.926,0,0,1,1-2.405A1,1,0,0,0,39.8,40.3l-.529-.966a9.563,9.563,0,0,1,1.056-1.056l.966.529a1,1,0,0,0,1.01-.028,7.9,7.9,0,0,1,2.4-1,1,1,0,0,0,.734-.694l.308-1.057a9.545,9.545,0,0,1,1.493,0h0l.309,1.057a1,1,0,0,0,.734.694,7.9,7.9,0,0,1,2.4,1,1,1,0,0,0,1.01.028l.965-.529a9.511,9.511,0,0,1,1.056,1.056L53.2,40.3a1,1,0,0,0,.028,1.009,7.927,7.927,0,0,1,1,2.405,1,1,0,0,0,.694.734l1.057.308a9.509,9.509,0,0,1,0,1.494l-1.057.308a1,1,0,0,0-.694.734,7.926,7.926,0,0,1-1,2.4A1,1,0,0,0,53.2,50.7l.529.966a9.557,9.557,0,0,1-1.056,1.056L51.7,52.2a1,1,0,0,0-1.01.028,7.9,7.9,0,0,1-2.4,1,1,1,0,0,0-.734.694l-.309,1.057a9.544,9.544,0,0,1-1.493,0l-.309-1.057a1,1,0,0,0-.734-.694,7.9,7.9,0,0,1-2.4-1A1,1,0,0,0,41.3,52.2l-.965.529a9.516,9.516,0,0,1-1.056-1.056L39.8,50.7a1,1,0,0,0-.028-1.009,7.925,7.925,0,0,1-1-2.4,1,1,0,0,0-.694-.734l-1.057-.308A9.509,9.509,0,0,1,37.029,44.753Z"/><path d="M46.5,51.551A6.051,6.051,0,1,0,40.45,45.5,6.054,6.054,0,0,0,46.5,51.551Zm0-10.1A4.051,4.051,0,1,1,42.45,45.5,4.053,4.053,0,0,1,46.5,41.449Z"/><path class="cls-3" d="M5,11H59V5H5ZM24,7h4a1,1,0,0,1,0,2H24a1,1,0,0,1,0-2ZM16,7h4a1,1,0,0,1,0,2H16a1,1,0,0,1,0-2ZM8,7h4a1,1,0,0,1,0,2H8A1,1,0,0,1,8,7Z"/><path d="M60,3H4A1,1,0,0,0,3,4V60a1,1,0,0,0,1,1H60a1,1,0,0,0,1-1V4A1,1,0,0,0,60,3ZM59,59H5V13H59Zm0-48H5V5H59Z"/><path class="cls-4" d="M20.036,38.929A10.964,10.964,0,1,0,9.071,27.964,10.97,10.97,0,0,0,20.036,38.929ZM12,27h7V20a1,1,0,0,1,2,0v8a1,1,0,0,1-1,1H12a1,1,0,0,1,0-2Z"/><path d="M20.036,40.929A12.964,12.964,0,1,0,7.071,27.964,12.971,12.971,0,0,0,20.036,40.929Zm0-23.929A10.964,10.964,0,1,1,9.071,27.964,10.969,10.969,0,0,1,20.036,17Z"/><rect class="cls-4" height="6" width="2" x="9" y="49"/><path d="M8,57h4a1,1,0,0,0,1-1V48a1,1,0,0,0-1-1H8a1,1,0,0,0-1,1v8A1,1,0,0,0,8,57Zm1-8h2v6H9Z"/><rect class="cls-2" height="8" width="2" x="17" y="47"/><path d="M20,45H16a1,1,0,0,0-1,1V56a1,1,0,0,0,1,1h4a1,1,0,0,0,1-1V46A1,1,0,0,0,20,45ZM19,55H17V47h2Z"/><rect class="cls-5" height="10" width="2" x="25" y="45"/><path d="M28,43H24a1,1,0,0,0-1,1V56a1,1,0,0,0,1,1h4a1,1,0,0,0,1-1V44A1,1,0,0,0,28,43ZM27,55H25V45h2Z"/><path d="M36,17H56a1,1,0,0,0,0-2H36a1,1,0,0,0,0,2Z"/><path d="M36,21H56a1,1,0,0,0,0-2H36a1,1,0,0,0,0,2Z"/><path d="M36,25H56a1,1,0,0,0,0-2H36a1,1,0,0,0,0,2Z"/><path d="M36,29H56a1,1,0,0,0,0-2H36a1,1,0,0,0,0,2Z"/><path class="cls-6" d="M8,9h4a1,1,0,0,0,0-2H8A1,1,0,0,0,8,9Z"/><path class="cls-6" d="M16,9h4a1,1,0,0,0,0-2H16a1,1,0,0,0,0,2Z"/><path class="cls-6" d="M24,9h4a1,1,0,0,0,0-2H24a1,1,0,0,0,0,2Z"/><path d="M12,29h8a1,1,0,0,0,1-1V20a1,1,0,0,0-2,0v7H12a1,1,0,0,0,0,2Z"/></g></svg>